HIERARCHY
ROOT Hips
{
	OFFSET 228.634003 92.561920 -263.051910
	CHANNELS 6 Xposition Yposition Zposition Zrotation Yrotation Xrotation 
	JOINT LeftUpLeg
	{
		OFFSET 0.103458 1.857820 10.548502
		CHANNELS 3 Xrotation Yrotation Zrotation
		JOINT LeftLeg
		{
			OFFSET 43.500000 -0.000023 -0.000011
			CHANNELS 3 Xrotation Yrotation Zrotation
			JOINT LeftFoot
			{
				OFFSET 42.372192 0.000038 0.000002
				CHANNELS 3 Xrotation Yrotation Zrotation
				JOINT LeftToe
				{
					OFFSET 17.299992 -0.000004 0.000006
					CHANNELS 3 Xrotation Yrotation Zrotation
					End Site
					{
						OFFSET 0.000000 0.000000 0.000000
					}
				}
			}
		}
	}
	JOINT RightUpLeg
	{
		OFFSET 0.103461 1.857814 -10.548508
		CHANNELS 3 Xrotation Yrotation Zrotation
		JOINT RightLeg
		{
			OFFSET 43.500042 -0.000015 0.000008
			CHANNELS 3 Xrotation Yrotation Zrotation
			JOINT RightFoot
			{
				OFFSET 42.372253 0.000008 0.000006
				CHANNELS 3 Xrotation Yrotation Zrotation
				JOINT RightToe
				{
					OFFSET 17.299973 -0.000014 0.000011
					CHANNELS 3 Xrotation Yrotation Zrotation
					End Site
					{
						OFFSET 0.000000 0.000000 0.000000
					}
				}
			}
		}
	}
	JOINT Spine
	{
		OFFSET 6.901966 -2.603737 -0.000007
		CHANNELS 3 Xrotation Yrotation Zrotation
		JOINT Spine1
		{
			OFFSET 12.588102 0.000017 0.000001
			CHANNELS 3 Xrotation Yrotation Zrotation
			JOINT Spine2
			{
				OFFSET 12.343197 -0.000013 0.000000
				CHANNELS 3 Xrotation Yrotation Zrotation
				JOINT Neck
				{
					OFFSET 25.832905 -0.000008 0.000000
					CHANNELS 3 Xrotation Yrotation Zrotation
					JOINT Head
					{
						OFFSET 11.766610 0.000009 -0.000002
						CHANNELS 3 Xrotation Yrotation Zrotation
						End Site
						{
							OFFSET 0.000000 0.000000 0.000000
						}
					}
				}
				JOINT LeftShoulder
				{
					OFFSET 19.745903 -1.480377 6.000115
					CHANNELS 3 Xrotation Yrotation Zrotation
					JOINT LeftArm
					{
						OFFSET 11.284125 -0.000014 -0.000024
						CHANNELS 3 Xrotation Yrotation Zrotation
						JOINT LeftForeArm
						{
							OFFSET 33.000046 -0.000012 0.000029
							CHANNELS 3 Xrotation Yrotation Zrotation
							JOINT LeftHand
							{
								OFFSET 25.199989 0.000034 0.000012
								CHANNELS 3 Xrotation Yrotation Zrotation
								End Site
								{
									OFFSET 0.000000 0.000000 0.000000
								}
							}
						}
					}
				}
				JOINT RightShoulder
				{
					OFFSET 19.746098 -1.480362 -6.000071
					CHANNELS 3 Xrotation Yrotation Zrotation
					JOINT RightArm
					{
						OFFSET 11.284137 -0.000006 -0.000008
						CHANNELS 3 Xrotation Yrotation Zrotation
						JOINT RightForeArm
						{
							OFFSET 33.000095 0.000017 0.000000
							CHANNELS 3 Xrotation Yrotation Zrotation
							JOINT RightHand
							{
								OFFSET 25.199778 0.000144 0.000423
								CHANNELS 3 Xrotation Yrotation Zrotation
								End Site
								{
									OFFSET 0.000000 0.000000 0.000000
								}
							}
						}
					}
				}
			}
		}
	}
}
MOTION
Frames: 17
Frame Time: 0.033333
-222.997803 88.637497 -547.852173 92.011418 2.973461 88.906004 -174.682949 -5.103497 178.449757 -24.448580 -5.390635 -7.703645 90.175668 4.179406 -8.307294 21.454558 0.003108 0.000016 142.311950 4.016006 -175.555123 -61.631973 4.985308 2.228408 67.537279 -0.989051 2.212643 21.454555 -0.003097 -0.000004 10.359430 0.413921 -1.978136 10.689186 1.008922 -3.909585 10.371840 0.985172 -3.915597 10.139304 7.851649 6.914951 -17.831396 -9.757260 11.559670 -167.527998 -77.570950 -14.192976 -9.135614 54.732116 15.227997 -76.651279 -13.195306 2.682829 4.855539 -4.424206 37.251777 -165.496249 74.959161 16.321009 2.284694 -63.400507 3.822516 -68.845179 17.752642 -2.636532 16.496691 3.865425 -66.436417 
-222.661606 88.415604 -544.846680 91.436583 2.021025 87.352054 -172.444996 -5.077806 177.686442 -22.616553 -5.388097 -8.225268 90.198672 4.507328 -8.550766 21.454560 0.003100 0.000017 142.325528 3.369506 -176.838297 -48.799178 5.974331 3.878540 67.302997 -1.828137 3.267024 21.454551 -0.003093 0.000004 10.263670 0.677520 -2.211228 10.485939 1.552756 -4.352210 10.168733 1.526331 -4.361496 8.264584 9.427550 7.490547 -18.066696 -10.753704 12.831042 -168.582019 -78.287198 -13.118046 -10.341610 55.107664 10.730262 -82.004959 -9.880929 2.683722 3.555162 -4.013760 35.639012 -162.904192 75.243864 18.971491 1.897920 -60.522538 3.324957 -64.865651 18.508074 -2.527699 18.672031 -0.756413 -51.653814 
-222.578903 87.912003 -541.726685 90.891786 1.385311 85.958013 -169.710503 -5.283004 176.521239 -20.712479 -5.556745 -8.381513 90.663241 4.624781 -8.744587 21.454555 0.003102 0.000018 144.246287 2.214905 -176.917609 -33.708544 4.485845 4.778648 65.303719 -1.919354 4.531112 21.454555 -0.003080 0.000001 10.312928 0.879149 -2.367859 10.574566 1.971113 -4.645963 10.257429 1.942912 -4.657751 6.217426 11.519028 7.725088 -18.085670 -12.059208 13.969560 -169.883074 -79.406044 -11.795031 -12.490532 55.228776 5.470504 -86.578153 -6.847035 2.673307 3.087088 -3.427254 35.348415 -162.340592 75.094262 19.549803 1.651268 -56.922083 1.056434 -60.532374 19.084537 -2.398253 17.836414 -4.304673 -43.154713 
-222.610306 87.284317 -538.480225 90.398804 0.963763 84.652955 -166.228008 -5.350409 175.953938 -17.851661 -5.900249 -8.857824 90.842288 4.958433 -8.861771 21.454557 0.003114 0.000016 146.993744 0.958994 -179.431187 -19.535888 3.262440 6.376034 63.560634 -3.222869 4.013314 21.454551 -0.003090 -0.000001 10.393699 1.046910 -2.485207 10.727416 2.319809 -4.863407 10.410302 2.290308 -4.877301 5.191389 12.705226 8.080029 -18.777495 -12.198305 14.732192 -172.000966 -80.440333 -9.646002 -14.206688 55.094942 0.621052 -90.255855 -4.119981 2.646332 3.161059 -2.911867 36.233621 -162.774145 75.454527 19.102424 1.164460 -54.019273 -2.351328 -55.216837 19.775450 -2.248786 14.563543 -6.013317 -37.088822 
-222.770203 86.519234 -535.130615 89.763432 0.679538 83.241954 -162.912593 -5.435595 175.117881 -15.859003 -6.006653 -9.195191 90.806040 5.151429 -9.216210 21.454558 0.003104 0.000016 148.186801 -0.146592 173.639678 -13.052497 3.819011 11.274487 61.779662 -6.729759 4.181563 21.454553 -0.003092 0.000000 10.477010 1.244344 -2.457193 10.887409 2.714484 -4.787460 10.570139 2.685414 -4.803716 4.815451 13.732616 8.259135 -19.524149 -13.079538 15.542437 -174.381970 -81.344152 -7.238044 -16.183348 55.102237 -3.144355 -92.087786 -2.776609 2.634306 2.312253 -2.235897 36.782693 -162.556276 75.552424 19.324299 0.481843 -51.397843 -5.536236 -49.758051 19.656255 -2.053289 11.200344 -5.696105 -33.212355 
-223.148499 85.771698 -531.844482 88.729376 0.031463 81.682007 -161.228869 -6.010801 174.641954 -16.476064 -6.105646 -9.692236 90.451150 5.384413 -9.934554 21.454555 0.003109 0.000015 146.469623 -1.787502 173.554724 -17.439445 4.599184 11.194240 59.503044 -7.558828 2.028702 21.454553 -0.003078 0.000001 10.481118 1.555646 -2.347986 10.887971 3.325396 -4.540761 10.570381 3.297806 -4.560722 4.054194 13.707309 8.520946 -19.236126 -13.321855 15.943236 -175.313020 -81.290760 -6.292953 -17.565906 55.190859 -5.180919 -92.167577 -2.811775 2.640328 2.217598 -2.446423 37.485444 -163.385980 75.577430 18.475556 -0.830642 -49.097667 -8.629597 -44.165048 19.600176 -1.875172 10.028294 -4.303359 -31.537517 
-223.874496 85.097198 -528.167480 87.550608 -0.444108 80.612065 -160.245295 -6.986892 173.324438 -19.220383 -5.560415 -9.340699 88.673744 4.841766 -11.048056 21.454558 0.003118 0.000017 144.270302 -3.425288 -178.057827 -25.372838 2.346912 6.458389 60.358006 -5.263874 -0.910491 21.454555 -0.003106 0.000001 10.569883 1.937120 -2.370447 11.052539 4.091840 -4.547481 10.734674 4.064202 -4.572076 2.764366 14.007860 8.728130 -19.023935 -13.986055 16.567151 -173.187028 -80.835221 -8.444936 -17.816888 56.252250 -5.945137 -90.884164 -3.754980 2.648875 2.285223 -3.044327 37.524677 -164.325691 75.106652 17.518124 -3.899603 -47.150616 -9.143625 -38.019241 18.439031 -1.630598 9.728722 -2.224964 -31.069267 
-224.697693 84.833588 -524.289001 86.651926 -0.982926 80.088995 -160.579182 -7.720391 172.562844 -23.505287 -4.455122 -9.356610 83.794120 4.269537 -11.909652 21.454555 0.003103 0.000018 143.388866 -3.987193 -175.152565 -30.961049 2.274253 5.173995 61.979008 -5.043417 -2.756145 21.454553 -0.003078 0.000001 10.632289 2.328812 -2.429614 11.162985 4.881157 -4.626834 10.844785 4.853016 -4.656199 1.919071 14.221425 8.876574 -19.490957 -14.849017 17.260419 -174.172979 -80.137674 -7.438958 -17.254251 57.761626 -3.899420 -86.704382 -6.854694 2.679441 2.372888 -5.402195 36.037448 -165.650105 74.320730 16.167169 -7.014709 -45.711977 -8.769133 -31.614115 16.761359 -1.374947 10.279400 0.671190 -30.964280 
-225.521194 85.173401 -520.477722 86.166504 -1.094973 80.358036 -162.744693 -8.239694 171.743604 -30.591147 -2.521788 -9.033820 76.733747 3.545414 -11.115762 21.454555 0.003103 0.000017 144.227600 -3.419197 -173.209554 -34.684186 3.136797 4.336749 65.661730 -4.836308 -4.159140 21.454551 -0.003102 -0.000001 10.667485 2.611302 -2.447452 11.224286 5.447669 -4.634560 10.905766 5.419479 -4.667367 2.096274 13.814047 8.625428 -19.694082 -14.631484 16.866179 -175.812990 -79.498409 -5.767934 -18.347133 58.817300 -0.159422 -79.361314 -11.721465 2.697031 2.551338 -7.421567 32.939209 -165.464912 73.545974 16.361568 -9.448329 -46.045877 -7.247926 -26.548594 15.287685 -1.185640 12.431622 2.499027 -32.280512 
-226.488800 85.791237 -516.684570 85.773372 -1.122583 80.758053 -167.750102 -9.008500 172.587733 -42.325087 -0.808575 -9.749290 70.641006 3.005679 -12.514331 21.454568 0.003114 0.000015 146.131132 -3.128605 -172.304649 -36.680319 4.025358 3.906433 69.308757 -4.581757 -4.802308 21.454555 -0.003082 0.000002 10.610454 2.807675 -2.266036 11.113932 5.819952 -4.256628 10.795023 5.794038 -4.291733 2.843132 13.757369 7.953310 -19.306867 -14.567443 15.996059 -178.885018 -79.474319 -2.645018 -20.979515 60.009550 3.729037 -69.153842 -16.680502 2.609232 4.663904 -7.905037 27.652760 -164.581918 72.706544 17.273676 -10.339560 -47.292493 -6.379497 -24.234355 14.574823 -1.103276 15.272151 1.614907 -34.091561 
-227.516006 86.783081 -512.694580 85.585699 -1.082637 80.422001 -173.863954 -9.275595 173.638476 -54.316939 0.355275 -10.505622 64.619593 4.191293 -9.073486 21.454557 0.003109 0.000021 149.207559 -3.714482 -172.323501 -36.558564 4.070076 3.667605 72.016162 -4.259622 -4.799221 21.454553 -0.003087 -0.000001 10.536056 2.900403 -1.970137 10.978409 5.974563 -3.660417 10.659156 5.952225 -3.696489 3.196912 12.616650 7.446211 -18.340718 -13.660948 14.762634 -179.042973 -79.141320 -2.479989 -23.574668 61.061044 7.107083 -57.823097 -19.579388 2.362155 7.882626 -7.311483 21.307772 -164.511909 72.706155 17.345696 -10.976345 -49.195387 -6.931313 -24.070992 14.215811 -1.077956 17.039621 -0.059785 -37.800760 
-228.609604 87.980270 -508.610107 85.562012 -0.778071 79.609987 -179.863401 -9.646813 175.446577 -64.363249 -0.163646 -8.443420 66.658528 3.238098 -7.904792 21.454560 0.003107 0.000013 153.310399 -4.701802 -172.905351 -34.875199 3.586221 3.519117 73.890790 -3.953570 -4.510963 21.454555 -0.003091 -0.000001 10.529091 2.854766 -1.666416 10.981224 5.854667 -3.057701 10.661845 5.835979 -3.093084 3.254630 11.666331 7.070122 -17.618036 -13.157739 13.931516 -177.421021 -78.755961 -4.124024 -24.029949 62.225134 10.638774 -48.318097 -20.352485 2.082558 9.736248 -6.229699 17.712946 -165.793020 73.071372 16.027596 -12.572845 -50.974019 -9.204817 -24.622885 13.915125 -1.067095 15.628111 -1.540046 -39.532104 
-229.665298 89.302406 -504.441895 86.171579 -0.202502 78.375990 174.213619 -9.120889 175.984988 -71.392962 -0.448842 -5.996761 69.876776 2.649559 -4.946397 21.454553 0.003111 0.000019 158.197877 -4.960101 -174.195273 -32.044020 3.409532 3.263356 75.173369 -3.681717 -4.434736 21.454553 -0.003080 -0.000000 10.539421 2.560880 -1.395585 11.019147 5.242970 -2.543075 10.699951 5.227385 -2.574745 3.620385 10.740241 6.969638 -17.446409 -12.798251 13.501138 -174.698972 -77.751219 -6.885007 -20.954640 62.705317 14.979681 -41.751522 -19.345956 1.817166 10.795711 -5.318823 17.936835 -166.583382 73.227483 15.215390 -15.717172 -52.322265 -12.529454 -25.838672 13.841192 -1.081509 13.538846 -1.824313 -39.679629 
-230.662399 90.441467 -500.381714 86.872315 0.209134 76.824957 168.529973 -8.531297 175.288827 -75.174244 -0.334292 -4.906670 69.960303 1.803149 -5.102459 21.454558 0.003107 0.000019 162.974611 -4.911407 -175.881223 -28.768921 3.482688 3.025162 76.045537 -3.482202 -4.473871 21.454553 -0.003092 0.000001 10.474445 2.178854 -1.071112 10.906606 4.448917 -1.933185 10.587673 4.437036 -1.960060 4.457130 9.585188 6.969738 -17.305128 -12.053076 12.976136 -170.614997 -76.799316 -11.045032 -15.688207 62.914942 21.000332 -37.423163 -18.305841 1.634206 10.999127 -4.844983 18.057453 -166.656629 73.663638 15.138500 -19.520325 -54.165675 -15.709737 -28.167517 14.734888 -1.178504 10.844516 0.007018 -37.087118 
-231.636307 91.291893 -496.312286 87.535889 0.377115 75.203006 163.035577 -8.144902 174.287645 -76.067871 -0.277024 -4.761579 69.849455 1.545786 -5.540125 21.454557 0.003111 0.000018 167.337995 -4.620098 -177.425843 -25.706073 3.602537 2.710541 76.856280 -3.232336 -4.511389 21.454553 -0.003080 -0.000001 10.317427 1.809029 -0.688825 10.608016 3.673557 -1.209309 10.289306 3.666047 -1.231507 5.434038 8.497313 6.813487 -17.060882 -11.858748 12.498585 -166.052021 -75.365496 -15.708972 -9.698796 62.240823 27.628948 -34.640442 -17.189124 1.495137 10.977551 -5.097508 16.993668 -167.400014 73.937290 14.375137 -22.970739 -55.731892 -16.663484 -31.659259 15.885283 -1.319640 9.215185 1.898857 -35.740648 
-232.610901 91.747719 -492.246490 87.922969 0.499922 73.759035 158.192440 -8.077510 174.050719 -74.262010 -0.982979 -5.121300 70.096982 2.047326 -4.944685 21.454558 0.003104 0.000018 171.353942 -4.215808 -179.137175 -23.233829 4.116934 2.626997 77.866076 -3.144078 -4.555996 21.454548 -0.003094 -0.000001 10.169852 1.514677 -0.284340 10.324744 3.048663 -0.432418 10.006163 3.045861 -0.450860 6.306490 7.468668 6.696784 -16.789249 -11.712069 12.108645 -162.248043 -73.827535 -19.618055 -4.036327 60.968352 33.702636 -33.082479 -16.549118 1.418997 10.937704 -5.043386 15.808821 -167.775701 74.704361 13.988214 -26.319823 -57.396900 -15.291984 -36.593408 16.680191 -1.481311 8.146618 4.236563 -35.524442 
-233.654297 91.820877 -488.171509 87.829286 0.727513 72.416015 154.500969 -8.450103 174.022879 -69.813010 -1.690332 -5.788179 70.135593 2.429963 -5.348225 21.454558 0.003118 0.000012 175.324768 -4.079297 179.366628 -21.278739 4.602024 2.589257 79.044721 -3.081687 -4.604271 21.454555 -0.003093 -0.000000 10.118598 1.331767 0.142204 10.231728 2.645723 0.401748 9.913273 2.647971 0.385755 7.113743 6.348324 6.694850 -16.987883 -11.206654 11.775091 -158.951056 -72.289752 -23.022956 0.819867 59.383966 38.464992 -32.604396 -16.123990 1.381329 10.821104 -5.080136 13.485046 -168.361513 75.515173 13.387339 -30.211586 -58.373126 -12.661379 -41.843484 17.189479 -1.650441 7.117520 5.816844 -34.990417 
